<svg width="52" height="52" viewBox="0 0 52 52" fill="none" xmlns="http://www.w3.org/2000/svg">
<rect width="52" height="52" rx="26" fill="#662E91" fill-opacity="0.15"/>
<path d="M13.2518 32.0889C12.3382 30.1797 11.875 28.1312 11.875 26.0002C11.875 18.2115 18.2115 11.875 26.0002 11.875C29.0949 11.875 32.0377 12.8635 34.4679 14.6911L32.1288 14.9991C31.6154 15.0666 31.2541 15.5376 31.3216 16.0509C31.3892 16.5643 31.8601 16.9256 32.3734 16.858L36.7734 16.2788C37.2867 16.2112 37.6481 15.7403 37.5806 15.2269L37.0012 10.827C36.9337 10.3137 36.4627 9.95231 35.9494 10.0199H35.9494C35.436 10.0874 35.0747 10.5584 35.1422 11.0717L35.4028 13.051C32.6872 11.0699 29.426 10 26.0002 10C21.7264 10 17.7084 11.6643 14.6863 14.6863C11.6643 17.7084 10 21.7264 10 26.0002C10 28.4136 10.525 30.7344 11.5605 32.8983C11.784 33.3653 12.3438 33.5628 12.8108 33.3393C13.2778 33.1158 13.4753 32.5559 13.2518 32.0889Z" fill="#B555FF"/>
<path d="M40.4394 19.1014C40.2159 18.6344 39.6561 18.4369 39.189 18.6604C38.722 18.8839 38.5246 19.4437 38.748 19.9107C39.6617 21.82 40.1249 23.8685 40.1249 25.9995C40.1249 33.7882 33.7884 40.1247 25.9997 40.1247C22.9054 40.1247 19.9633 39.1358 17.5333 37.3084L19.8711 37.0006C20.3844 36.9331 20.7458 36.4621 20.6782 35.9488C20.6106 35.4354 20.1397 35.0741 19.6264 35.1417L15.2264 35.7209C14.7131 35.7885 14.3517 36.2594 14.4193 36.7727L14.9986 41.1727C15.0661 41.686 15.5371 42.0474 16.0504 41.9798C16.5637 41.9122 16.9252 41.4413 16.8576 40.928L16.597 38.9484C19.3127 40.9296 22.5737 41.9997 25.9997 41.9997C30.2735 41.9997 34.2915 40.3354 37.3136 37.3134C40.3356 34.2913 41.9999 30.2733 41.9999 25.9995C41.9999 23.5861 41.4749 21.2653 40.4394 19.1014Z" fill="#B555FF"/>
<path d="M34.7011 24.5852L35.1407 24.3314C35.5891 24.0725 35.7427 23.4991 35.4838 23.0508L33.2963 19.2618C33.0374 18.8135 32.4641 18.6598 32.0157 18.9187L31.5473 19.1892C31.0362 19.4842 30.4248 19.481 29.916 19.1793C29.4181 18.8842 29.1254 18.3362 29.1254 17.7575V17.25C29.1254 16.7323 28.7056 16.3125 28.1879 16.3125H23.8128C23.2951 16.3125 22.8753 16.7323 22.8753 17.25V17.7577C22.8753 18.3363 22.5826 18.8843 22.0848 19.1793C21.5759 19.4809 20.9645 19.4842 20.4534 19.1891L19.985 18.9187C19.5367 18.6598 18.9633 18.8134 18.7044 19.2618L16.5169 23.0507C16.258 23.4991 16.4116 24.0725 16.86 24.3313L17.2996 24.5852C17.8008 24.8745 18.129 25.402 18.1355 25.9807C18.1423 26.5722 17.8394 27.1032 17.3283 27.3983L16.86 27.6687C16.4116 27.9276 16.258 28.501 16.5169 28.9493L18.7044 32.7383C18.9633 33.1866 19.5367 33.3403 19.985 33.0814L20.4534 32.8109C20.9645 32.5159 21.5759 32.5191 22.0847 32.8208C22.5826 33.116 22.8753 33.664 22.8753 34.2427V34.7502C22.8753 35.268 23.2951 35.6877 23.8128 35.6877H28.1879C28.7056 35.6877 29.1254 35.268 29.1254 34.7502V34.2425C29.1254 33.6639 29.4181 33.1159 29.9159 32.8209C30.4248 32.5193 31.0362 32.5161 31.5473 32.8111L32.0157 33.0816C32.4641 33.3404 33.0374 33.1868 33.2963 32.7384L35.4838 28.9495C35.7427 28.5011 35.5891 27.9278 35.1407 27.6689L34.6724 27.3985C34.1613 27.1034 33.8584 26.5724 33.8652 25.9809C33.8718 25.4021 34.1999 24.8745 34.7011 24.5852ZM33.4022 28.805L32.1304 31.0078C31.1178 30.5635 29.9718 30.6234 28.9951 31.1873C28.0185 31.7511 27.3937 32.7136 27.2722 33.8127H24.7286C24.607 32.7137 23.9823 31.7512 23.0056 31.1873C22.0289 30.6234 20.8829 30.5635 19.8704 31.0078L18.5986 28.805C19.4895 28.1501 20.0107 27.1277 20.0107 26.0001C20.0107 24.8725 19.4895 23.85 18.5986 23.1953L19.8704 20.9924C20.8829 21.4367 22.029 21.3768 23.0056 20.8129C23.9823 20.2491 24.607 19.2866 24.7286 18.1875H27.2722C27.3937 19.2865 28.0185 20.249 28.9951 20.8129C29.9719 21.3768 31.1178 21.4366 32.1304 20.9924L33.4022 23.1953C32.5113 23.8501 31.99 24.8725 31.99 26.0001C31.99 27.1277 32.5113 28.1502 33.4022 28.805Z" fill="#B555FF"/>
<path d="M26 21.9375C23.76 21.9375 21.9375 23.76 21.9375 26C21.9375 28.2401 23.76 30.0626 26 30.0626C28.2401 30.0626 30.0626 28.2401 30.0626 26C30.0626 23.76 28.2401 21.9375 26 21.9375ZM26 28.1876C24.7938 28.1876 23.8125 27.2062 23.8125 26C23.8125 24.7938 24.7938 23.8125 26 23.8125C27.2062 23.8125 28.1876 24.7938 28.1876 26C28.1876 27.2062 27.2062 28.1876 26 28.1876Z" fill="#B555FF"/>
</svg>
