<svg width="64" height="56" viewBox="0 0 64 56" fill="none" xmlns="http://www.w3.org/2000/svg">
<path d="M28.3633 43.6367C28.7646 43.6367 29.0907 43.962 29.0908 44.3633V53.8184C29.0907 54.6196 28.438 55.2723 27.6367 55.2725H0.727539C0.326085 55.2725 0 54.9464 0 54.5449C0.000243043 54.1437 0.326235 53.8184 0.727539 53.8184H27.6367V44.3633C27.6369 43.9621 27.9621 43.637 28.3633 43.6367ZM35.6357 42.9092C36.0372 42.9092 36.3633 43.2353 36.3633 43.6367V53.8184H63.2725C63.6739 53.8184 64 54.1444 64 54.5459C63.9998 54.9472 63.6738 55.2725 63.2725 55.2725H36.3633C35.5619 55.2724 34.9092 54.6197 34.9092 53.8184V43.6367C34.9092 43.2354 35.2345 42.9094 35.6357 42.9092ZM26.1816 18.9092C26.5831 18.9092 26.9092 19.2353 26.9092 19.6367C26.909 20.038 26.583 20.3633 26.1816 20.3633H18.1816C12.9687 20.3634 8.72754 24.6054 8.72754 29.8184V31.2725C8.72754 36.4855 12.9687 40.7274 18.1816 40.7275H29.8184C35.0314 40.7275 39.2725 36.4855 39.2725 31.2725C39.272 31.2458 39.2151 28.8179 38.9326 27.2861C38.8599 26.8905 39.12 26.5102 39.5156 26.4375C39.9214 26.3633 40.2906 26.6273 40.3633 27.0215C40.6672 28.6753 40.7261 31.1507 40.7275 31.2568C40.7274 37.2887 35.8342 42.1816 29.8184 42.1816H18.1816C12.1658 42.1815 7.27246 37.2884 7.27246 31.2725V29.8184C7.27246 23.8025 12.1658 18.9093 18.1816 18.9092H26.1816ZM45.8184 18.9092C51.8344 18.9092 56.7275 23.8024 56.7275 29.8184V31.2725C56.7275 37.2884 51.8343 42.1816 45.8184 42.1816H37.1816C36.7802 42.1816 36.4541 41.8556 36.4541 41.4541C36.4542 41.0527 36.7802 40.7266 37.1816 40.7266H45.8184C51.0314 40.7266 55.2725 36.4855 55.2725 31.2725V29.8184C55.2725 24.6053 51.0314 20.3633 45.8184 20.3633H34.1816C28.9687 20.3635 24.7275 24.6054 24.7275 29.8184V31.2725C24.7275 32.18 24.8553 33.076 25.1084 33.9385C25.2219 34.3239 25.0007 34.7269 24.6152 34.8418C24.2313 34.9566 23.8253 34.734 23.7119 34.3486C23.4211 33.3523 23.2734 32.3182 23.2734 31.2725V29.8184C23.2734 23.8025 28.1658 18.9094 34.1816 18.9092H45.8184ZM22.5459 23.2725C22.9472 23.2727 23.2725 23.5987 23.2725 24C23.2724 24.4013 22.9472 24.7273 22.5459 24.7275H18.9092C15.7006 24.7275 13.0911 27.3364 13.0908 30.5449C13.0908 33.7536 15.7005 36.3633 18.9092 36.3633H29.0908C32.2995 36.3633 34.9092 33.7536 34.9092 30.5449C34.9091 29.4761 34.617 28.4304 34.0645 27.5244C33.8551 27.1813 33.9637 26.7349 34.3066 26.5254C34.6499 26.316 35.0986 26.4244 35.3066 26.7676C35.9989 27.902 36.3632 29.2084 36.3633 30.5449C36.3633 34.5551 33.101 37.8184 29.0908 37.8184H18.9092C14.899 37.8184 11.6367 34.5551 11.6367 30.5449C11.637 26.535 14.8992 23.2725 18.9092 23.2725H22.5459ZM45.0908 23.2725C49.1009 23.2725 52.3641 26.5349 52.3643 30.5449C52.3643 34.5551 49.101 37.8184 45.0908 37.8184H41.5156C41.1143 37.8182 40.7882 37.4921 40.7881 37.0908C40.7881 36.6894 41.1143 36.3634 41.5156 36.3633H45.0908C48.2995 36.3633 50.9092 33.7536 50.9092 30.5449C50.909 27.3363 48.2995 24.7266 45.0908 24.7266H34.9092C31.7006 24.7266 29.091 27.3364 29.0908 30.5449C29.0908 31.7244 29.4418 32.859 30.1035 33.8262C30.3304 34.1578 30.2457 34.611 29.9141 34.8379C29.5839 35.0659 29.1301 34.9799 28.9033 34.6484C28.0743 33.4368 27.6367 32.0183 27.6367 30.5449C27.6369 26.5349 30.8991 23.2725 34.9092 23.2725H45.0908ZM26.9092 0C28.112 0 29.0907 0.978843 29.0908 2.18164V17.4541C29.0908 17.8556 28.7647 18.1816 28.3633 18.1816C27.962 18.1814 27.6367 17.8554 27.6367 17.4541V10.1816H0.727539C0.326245 10.1816 0.000259504 9.85631 0 9.45508C0 9.05362 0.326085 8.72754 0.727539 8.72754H27.6367V2.18164C27.6366 1.7803 27.3106 1.45508 26.9092 1.45508H0.727539C0.326153 1.45508 0.000109478 1.1289 0 0.727539C0 0.326085 0.326085 0 0.727539 0H26.9092ZM63.2725 0C63.6739 0 64 0.326085 64 0.727539C63.9999 1.12887 63.6738 1.4541 63.2725 1.4541H37.0908C36.6895 1.4542 36.3634 1.78032 36.3633 2.18164V8.72754H63.2725C63.6738 8.72754 63.9998 9.05284 64 9.4541C64 9.85556 63.6739 10.1816 63.2725 10.1816H36.3633V16.7275C36.3631 17.1288 36.038 17.454 35.6367 17.4541C35.2354 17.4541 34.9093 17.1289 34.9092 16.7275V2.18164C34.9093 0.978868 35.8881 9.45759e-05 37.0908 0H63.2725ZM41.4541 2.90918C42.657 2.90918 43.6367 3.88792 43.6367 5.09082C43.6367 6.29373 42.657 7.27246 41.4541 7.27246C40.2514 7.27225 39.2725 6.2936 39.2725 5.09082C39.2725 3.88805 40.2514 2.90939 41.4541 2.90918ZM48.7275 2.90918C49.9304 2.90918 50.9092 3.88791 50.9092 5.09082C50.909 6.29361 49.9304 7.27246 48.7275 7.27246C47.5248 7.27232 46.546 6.29352 46.5459 5.09082C46.5459 3.888 47.5247 2.90932 48.7275 2.90918ZM56 2.90918C57.2029 2.90918 58.1816 3.88791 58.1816 5.09082C58.1816 6.29367 57.2029 7.27246 56 7.27246C54.7972 7.27236 53.8184 6.29361 53.8184 5.09082C53.8184 3.88797 54.7972 2.90928 56 2.90918ZM41.4541 4.36328C41.0528 4.36349 40.7276 4.68951 40.7275 5.09082C40.7275 5.49215 41.0528 5.81815 41.4541 5.81836C41.8556 5.81836 42.1816 5.49227 42.1816 5.09082C42.1816 4.68938 41.8555 4.36328 41.4541 4.36328ZM56 4.36328C55.5986 4.36338 55.2725 4.68943 55.2725 5.09082C55.2725 5.49216 55.5987 5.81826 56 5.81836C56.4014 5.81836 56.7275 5.49222 56.7275 5.09082C56.7275 4.68937 56.4015 4.36328 56 4.36328ZM48.7275 4.36328C48.3262 4.36342 48.001 4.68945 48.001 5.09082C48.0011 5.49207 48.3263 5.81724 48.7275 5.81738C49.1289 5.81738 49.4549 5.49215 49.4551 5.09082C49.4551 4.68937 49.129 4.36328 48.7275 4.36328Z" fill="url(#paint0_linear_338_1352)"/>
<defs>
<linearGradient id="paint0_linear_338_1352" x1="0.147631" y1="-12.2677" x2="64.8034" y2="-11.4896" gradientUnits="userSpaceOnUse">
<stop offset="0.153846" stop-color="#7225AD"/>
<stop offset="1" stop-color="#CC067F"/>
</linearGradient>
</defs>
</svg>
