<svg width="117" height="117" viewBox="0 0 117 117" fill="none" xmlns="http://www.w3.org/2000/svg">
<mask id="path-1-inside-1_319_4384" fill="white">
<path d="M0 58.147C0 26.0333 26.0333 0 58.147 0C90.2607 0 116.294 26.0333 116.294 58.147C116.294 90.2607 90.2607 116.294 58.147 116.294C26.0333 116.294 0 90.2607 0 58.147Z"/>
</mask>
<path d="M0 58.147C0 26.0333 26.0333 0 58.147 0C90.2607 0 116.294 26.0333 116.294 58.147C116.294 90.2607 90.2607 116.294 58.147 116.294C26.0333 116.294 0 90.2607 0 58.147Z" fill="url(#paint0_radial_319_4384)"/>
<path d="M58.147 0C64.2454 0.108611 70.2943 1.16421 76.0242 3.13168C99.1878 10.7954 115.625 34.1402 115.048 58.147C115.471 88.4503 88.2061 115.351 58.147 114.633C28.0879 115.351 0.822466 88.4503 1.24601 58.147C0.669161 34.1401 17.1062 10.7954 40.2698 3.13168C45.9996 1.16421 52.0486 0.108611 58.147 0C52.0489 -0.113003 45.9299 0.732643 40.0748 2.53123C16.413 9.46729 -1.39475 33.0483 -1.24601 58.147C-1.24601 58.147 -1.24601 58.147 -1.24601 58.147C-2.32866 89.789 26.2608 118.743 58.147 117.955C58.147 117.955 58.147 117.955 58.147 117.955C58.147 117.955 58.147 117.955 58.147 117.955C90.0332 118.743 118.623 89.789 117.54 58.147C117.54 58.147 117.54 58.147 117.54 58.147C117.689 33.0483 99.881 9.46729 76.2192 2.53123C70.364 0.732645 64.245 -0.113003 58.147 0ZM58.147 0" fill="url(#paint1_linear_319_4384)" mask="url(#path-1-inside-1_319_4384)"/>
<path d="M83.4551 24.147C84.7596 24.147 85.8269 25.2146 85.8271 26.519V43.1235C85.8271 43.5584 85.471 43.9146 85.0361 43.9146C84.6015 43.9143 84.2461 43.5583 84.2461 43.1235V32.0542H25.7354V85.8208C25.7354 86.2556 26.0906 86.6117 26.5254 86.6118H81.0596L77.9678 83.52C77.5804 83.1327 77.0191 82.9515 76.4736 83.0542L75.9121 83.1489C75.1689 83.2912 74.3782 83.1486 73.6982 82.7612L73.0186 82.3735C71.6032 82.8242 70.1319 83.0542 68.6533 83.0542C64.9609 83.0541 61.2601 81.6463 58.4453 78.8315C53.2112 73.5973 52.8558 65.319 57.3545 59.6577V47.4731C57.3545 47.0383 57.7106 46.6821 58.1455 46.6821H64.4707C64.9056 46.6821 65.2617 47.0383 65.2617 47.4731V54.6206C66.8193 54.249 68.4167 54.1228 70.0059 54.2651V49.8452C70.0059 49.4105 70.3612 49.0544 70.7959 49.0542H77.1221C77.5568 49.0544 77.9121 49.4104 77.9121 49.8452V57.5698C78.2362 57.8386 78.5531 58.115 78.8535 58.4233C82.791 62.3609 83.9609 68.0145 82.3955 72.9878L82.791 73.6763C83.1784 74.3404 83.3131 75.1233 83.1787 75.8823L83.0752 76.4438C82.9804 76.9814 83.1547 77.5428 83.542 77.9302L84.2383 78.6255V50.2397C84.2385 49.8052 84.5937 49.4499 85.0283 49.4497C85.4631 49.4497 85.8191 49.8051 85.8193 50.2397V80.2075L90.9189 85.3071C92.3975 86.7857 92.5561 89.1657 91.2754 90.7075H91.2832C90.5716 91.5693 89.5279 92.0916 88.4131 92.147H88.2314C87.1878 92.147 86.1749 91.728 85.4316 90.9927L82.6328 88.1929H26.5254C25.2209 88.1927 24.1533 87.1254 24.1533 85.8208V26.519C24.1536 25.2147 25.221 24.1471 26.5254 24.147H83.4551ZM81.6055 74.9575C80.9255 76.357 80.0158 77.6693 78.8535 78.8315C77.6913 79.9938 76.3789 80.8956 74.9795 81.5835C75.1927 81.6308 75.406 81.6385 75.6191 81.5991L76.1885 81.5044C77.2322 81.3146 78.3161 81.6545 79.0752 82.4136L86.5469 89.8853C87.0213 90.3596 87.6698 90.6053 88.334 90.5815C89.006 90.5499 89.6228 90.2411 90.0576 89.7114C90.8245 88.7864 90.7138 87.3474 89.7969 86.4302L89.8047 86.4224L82.4277 79.0454C81.6687 78.2864 81.3357 77.2103 81.5176 76.1587L81.6211 75.5972C81.6605 75.384 81.6528 75.1628 81.6055 74.9575ZM68.6611 55.7827C65.372 55.7828 62.0826 57.0322 59.5762 59.5386C54.5634 64.5515 54.5634 72.7034 59.5762 77.7085C64.5891 82.7214 72.741 82.7214 77.7461 77.7085C82.7591 72.6955 82.7591 64.5436 77.7461 59.5386C75.2396 57.0322 71.9503 55.7827 68.6611 55.7827ZM60.6914 60.6538C65.0876 56.2576 72.2357 56.2576 76.624 60.6538C78.7507 62.7807 79.9209 65.6112 79.9209 68.6235H79.9287C79.9287 71.6361 78.7588 74.4594 76.6318 76.5942C74.5049 78.729 71.6736 79.8911 68.6611 79.8911C65.6488 79.891 62.8183 78.7209 60.6914 76.5942C58.5645 74.4673 57.3945 71.6361 57.3945 68.6235C57.3946 65.6111 58.5645 62.7807 60.6914 60.6538ZM54.9355 77.519C55.3702 77.5193 55.7256 77.8753 55.7256 78.3101C55.7253 78.7446 55.3701 79.0998 54.9355 79.1001H32.8516C32.4168 79.1001 32.0608 78.7447 32.0605 78.3101C32.0605 77.8752 32.4167 77.519 32.8516 77.519H54.9355ZM68.6611 58.938C66.0759 58.9381 63.6408 59.9418 61.8145 61.7759C59.988 63.6023 58.9756 66.038 58.9756 68.6235C58.9756 71.2091 59.9801 73.6447 61.8145 75.4712C63.6408 77.2974 66.0758 78.31 68.6611 78.3101C71.2467 78.3101 73.6823 77.3055 75.5088 75.4712C77.3353 73.6447 78.3477 71.2091 78.3477 68.6235C78.3476 66.038 77.3432 63.6023 75.5088 61.7759C73.6823 59.9495 71.2466 58.938 68.6611 58.938ZM52.6025 72.7749C53.0374 72.7749 53.3936 73.131 53.3936 73.5659C53.3933 74.0006 53.0373 74.356 52.6025 74.356H32.8516C32.4168 74.356 32.0608 74.0006 32.0605 73.5659C32.0605 73.131 32.4167 72.7749 32.8516 72.7749H52.6025ZM69.8477 65.1997C70.2824 65.1998 70.6377 65.5559 70.6377 65.9907C70.6377 66.4255 70.2824 66.7816 69.8477 66.7817V66.7896H68.2656V67.8413H69.8477C70.2824 67.8414 70.6376 68.1966 70.6377 68.6313C70.6377 69.0662 70.2824 69.4223 69.8477 69.4224H68.2656V70.4741H69.8477C70.2823 70.4742 70.6375 70.8295 70.6377 71.2642C70.6377 71.699 70.2824 72.0551 69.8477 72.0552H67.4756C67.0407 72.0552 66.6846 71.699 66.6846 71.2642V65.9907C66.6846 65.5558 67.0407 65.1997 67.4756 65.1997H69.8477ZM73.8008 65.1997C75.1053 65.1997 76.1727 66.2673 76.1729 67.5718V69.6753C76.1728 70.9799 75.1054 72.0474 73.8008 72.0474C72.4962 72.0473 71.4287 70.9799 71.4287 69.6753V67.5718C71.4289 66.2673 72.4963 65.1998 73.8008 65.1997ZM65.1035 65.1997C65.5383 65.1998 65.8936 65.5559 65.8936 65.9907C65.8935 66.4255 65.5383 66.7816 65.1035 66.7817H63.0791V66.7739C62.8894 66.774 62.7314 66.9318 62.7314 67.1216C62.7315 67.2559 62.8024 67.3748 62.9209 67.438L64.8262 68.3862C65.4824 68.7104 65.8934 69.3746 65.8936 70.1099C65.8936 71.1693 65.0322 72.0395 63.9648 72.0396H61.9404C61.5056 72.0395 61.1494 71.6834 61.1494 71.2485C61.1495 70.8138 61.5057 70.4586 61.9404 70.4585H63.9648C64.1546 70.4584 64.3125 70.2996 64.3125 70.1099C64.3124 69.9836 64.2414 69.8655 64.123 69.8022L62.2178 68.853C61.5615 68.5289 61.1495 67.8647 61.1494 67.1294C61.1494 66.062 62.0117 65.1997 63.0791 65.1997H65.1035ZM73.8008 66.7817C73.366 66.7818 73.0099 67.1371 73.0098 67.5718V69.6753C73.0098 70.1101 73.366 70.4662 73.8008 70.4663C74.2357 70.4663 74.5918 70.1102 74.5918 69.6753V67.5718C74.5916 67.137 74.2356 66.7817 73.8008 66.7817ZM51.8594 68.0308C52.2942 68.0308 52.6504 68.3869 52.6504 68.8218C52.6502 69.2564 52.2941 69.6118 51.8594 69.6118H32.8516C32.4168 69.6118 32.0608 69.2565 32.0605 68.8218C32.0605 68.3869 32.4167 68.0308 32.8516 68.0308H51.8594ZM39.1768 55.3794C39.6116 55.3795 39.9678 55.7356 39.9678 56.1704V63.6821C39.9676 64.1168 39.6115 64.4721 39.1768 64.4722H32.8516C32.4168 64.4722 32.0607 64.1169 32.0605 63.6821V56.1704C32.0605 55.7355 32.4167 55.3794 32.8516 55.3794H39.1768ZM51.8281 51.4263C52.2628 51.4265 52.6182 51.7826 52.6182 52.2173V63.6821C52.618 64.1167 52.2627 64.4719 51.8281 64.4722H45.502C45.0673 64.4721 44.7121 64.1168 44.7119 63.6821V52.2173C44.7119 51.7825 45.0672 51.4264 45.502 51.4263H51.8281ZM33.6416 62.8911H38.3857V56.9614H33.6416V62.8911ZM46.293 62.8911H51.0371V53.0073H46.293V62.8911ZM58.9443 57.981C60.3596 56.6844 61.9728 55.7277 63.6885 55.0952V48.2632H58.9443V57.981ZM71.5947 54.5103C73.2551 54.8502 74.8603 55.4904 76.3389 56.4233V50.6353H71.5947V54.5103ZM61.332 39.5581C62.5178 39.5582 63.49 40.4276 63.6641 41.5659L71.9424 43.1157C72.3535 42.4121 73.1128 41.9303 73.9824 41.9302C75.2871 41.9302 76.3545 42.9976 76.3545 44.3022C76.3544 45.6068 75.287 46.6743 73.9824 46.6743C72.7965 46.6742 71.8243 45.804 71.6504 44.6655L63.3721 43.1157C62.961 43.8194 62.2017 44.3021 61.332 44.3022C60.6046 44.3022 59.9564 43.9618 59.5215 43.4399L59.5049 43.4478L51.0293 46.5552C51.0293 46.5947 51.0449 46.6347 51.0449 46.6821C51.0449 47.9867 49.9774 49.0542 48.6729 49.0542C47.8743 49.0542 47.1623 48.6512 46.7354 48.0425L38.3857 50.7065C38.3462 51.9796 37.3024 53.0073 36.0215 53.0073C34.7407 53.0072 33.6494 51.9398 33.6494 50.6353C33.6495 49.3308 34.7171 48.2634 36.0215 48.2632C36.7885 48.2632 37.4684 48.6353 37.9033 49.2046L46.3242 46.5161C46.4112 45.2906 47.4314 44.3101 48.6807 44.3101C49.3762 44.3101 50.0008 44.6181 50.4277 45.0923L58.96 41.9614V41.9302C58.96 40.6255 60.0274 39.5581 61.332 39.5581ZM36.0137 49.8452C35.579 49.8453 35.2238 50.2006 35.2236 50.6353C35.2236 51.0701 35.5789 51.4262 36.0137 51.4263C36.4486 51.4263 36.8047 51.0701 36.8047 50.6353C36.8046 50.2005 36.4485 49.8452 36.0137 49.8452ZM85.0361 45.1802C85.4709 45.1802 85.827 45.5354 85.8271 45.9702V47.394C85.8269 47.8288 85.4709 48.1841 85.0361 48.1841C84.6016 48.1838 84.2463 47.8286 84.2461 47.394V45.9702C84.2462 45.5356 84.6015 45.1804 85.0361 45.1802ZM48.665 45.8911C48.2302 45.8911 47.874 46.2472 47.874 46.6821C47.8741 47.117 48.2302 47.4731 48.665 47.4731C49.0998 47.4731 49.456 47.1169 49.4561 46.6821C49.4561 46.2473 49.0999 45.8912 48.665 45.8911ZM73.9668 43.519C73.532 43.5191 73.1758 43.8752 73.1758 44.3101C73.1758 44.7449 73.532 45.101 73.9668 45.1011C74.4017 45.1011 74.7578 44.7449 74.7578 44.3101C74.7578 43.8752 74.4017 43.519 73.9668 43.519ZM61.3164 41.147C60.8815 41.147 60.5254 41.5031 60.5254 41.938C60.5254 42.3728 60.8815 42.729 61.3164 42.729C61.751 42.7287 62.1064 42.3727 62.1064 41.938C62.1064 41.5033 61.7511 41.1472 61.3164 41.147ZM26.5254 25.729C26.0908 25.7291 25.7356 26.0844 25.7354 26.519V30.4731H84.2461V26.519C84.2458 26.0844 83.8898 25.729 83.4551 25.729H26.5254Z" fill="white"/>
<defs>
<radialGradient id="paint0_radial_319_4384" cx="0" cy="0" r="1" gradientUnits="userSpaceOnUse" gradientTransform="translate(59.932 58.147) scale(56.362 58.147)">
<stop stop-color="#CC067F" stop-opacity="0.55"/>
<stop offset="1" stop-color="#662E91" stop-opacity="0"/>
</radialGradient>
<linearGradient id="paint1_linear_319_4384" x1="22.3847" y1="12.4954" x2="89.698" y2="18.594" gradientUnits="userSpaceOnUse">
<stop stop-color="#CC067F"/>
<stop offset="1" stop-color="#662E91"/>
</linearGradient>
</defs>
</svg>
