<svg width="187" height="146" viewBox="0 0 187 146" fill="none" xmlns="http://www.w3.org/2000/svg">
<circle cx="80.1228" cy="40.2354" r="35.2133" transform="rotate(-3.67906 80.1228 40.2354)" stroke="#CB407A" stroke-width="4.03881"/>
<rect x="0.0864258" y="59.0549" width="166.773" height="90.6006" rx="17.5015" transform="rotate(-17.2515 0.0864258 59.0549)" fill="url(#paint0_linear_11072_51)"/>
<path d="M30.604 100.611L29.4305 96.7681L32.7398 95.7574C31.5255 94.5904 30.6469 93.1185 30.1043 91.3417C29.2631 88.5876 29.4406 85.9352 30.6365 83.3846C31.4083 81.7243 32.4673 80.4215 33.8136 79.4761C35.2397 78.474 36.93 77.6745 38.8845 77.0775C42.6158 75.9379 45.6355 76.0194 47.9435 77.3218C50.2663 78.6197 52.0269 81.2306 53.2252 85.1545L45.2739 87.5829C45.1979 86.91 45.1124 86.4181 45.0174 86.1071C44.6873 85.0262 44.0339 84.2383 43.0572 83.7434C42.0952 83.244 41.1182 83.1458 40.1261 83.4488C39.0304 83.7834 38.2493 84.459 37.7828 85.4757C37.331 86.4878 37.2996 87.6306 37.6885 88.904C37.9508 89.7628 38.2561 90.4708 38.6044 91.0282C38.9482 91.5707 39.5697 92.3603 40.4691 93.3968L47.2877 91.3144L48.4612 95.1568L42.7753 96.8933C43.2025 97.815 43.5269 98.6387 43.7485 99.3642C43.9837 100.134 44.1014 100.997 44.1017 101.952C46.6685 101.929 48.3026 101.899 49.0038 101.863C49.7154 101.807 50.3821 101.685 51.004 101.495C52.2774 101.106 52.7425 100.244 52.3992 98.9076L57.2855 97.4153C57.6082 98.7899 57.696 100.058 57.549 101.22C57.3695 102.699 56.9351 103.9 56.2456 104.823C55.353 106.035 53.9812 106.923 52.1303 107.488C51.464 107.692 50.7922 107.824 50.1148 107.886C49.4374 107.947 48.1948 107.986 46.3872 108.004C43.9035 108.034 42.1063 108.219 40.9958 108.558C39.6335 108.974 38.9336 109.73 38.8961 110.826L33.6988 112.413C33.5667 110.285 33.7797 108.544 34.338 107.192C35.2736 105.061 36.6298 103.724 38.4066 103.181C38.5058 102.552 38.4853 102.008 38.3451 101.549C38.0376 100.542 37.4562 99.6186 36.6008 98.7791L30.604 100.611ZM63.5216 77.4448L59.2128 78.7607L57.1778 72.0976L69.3713 68.3736L78.6306 98.6908L70.7459 101.099L63.5216 77.4448ZM85.9542 70.5936L81.6454 71.9096L79.6104 65.2465L91.8039 61.5224L101.063 91.8397L93.1784 94.2478L85.9542 70.5936ZM122.807 85.1988L113.856 87.9325L119.349 74.9881C117.974 76.1042 116.649 76.8567 115.376 77.2456C112.622 78.0867 109.997 77.7876 107.502 76.3481C104.991 74.9132 103.27 72.6707 102.339 69.6204C101.172 65.8002 101.707 62.3586 103.945 59.2957C105.701 56.8816 108.326 55.141 111.82 54.0737C115.951 52.812 119.495 52.9925 122.451 54.615C125.194 56.1243 127.018 58.3597 127.923 61.3211C128.447 63.0387 128.617 65.051 128.431 67.3579C128.241 69.65 127.72 71.9459 126.868 74.2457L122.807 85.1988ZM113.757 60.2569C112.38 60.6775 111.352 61.5256 110.673 62.8013C109.999 64.0919 109.865 65.4034 110.272 66.7361C110.702 68.1427 111.557 69.1929 112.837 69.8865C114.098 70.5698 115.432 70.6966 116.838 70.267C118.216 69.8465 119.243 68.9983 119.922 67.7226C120.601 66.4469 120.728 65.1131 120.303 63.7212C119.882 62.3442 119.036 61.3237 117.765 60.6597C116.504 59.9763 115.168 59.8421 113.757 60.2569ZM150.126 76.8553L141.175 79.589L146.668 66.6446C145.293 67.7607 143.968 68.5132 142.695 68.9021C139.941 69.7432 137.316 69.4441 134.82 68.0046C132.31 66.5697 130.589 64.3272 129.658 61.2769C128.491 57.4567 129.026 54.0151 131.264 50.9522C133.019 48.5381 135.644 46.7975 139.139 45.7303C143.27 44.4686 146.814 44.649 149.77 46.2715C152.513 47.7809 154.337 50.0162 155.242 52.9776C155.766 54.6952 155.936 56.7075 155.75 59.0144C155.56 61.3065 155.039 63.6024 154.187 65.9022L150.126 76.8553ZM141.076 51.9134C139.699 52.334 138.671 53.1821 137.992 54.4578C137.318 55.7484 137.184 57.06 137.591 58.3926C138.021 59.7993 138.876 60.8494 140.156 61.543C141.417 62.2263 142.751 62.3532 144.157 61.9235C145.534 61.503 146.562 60.6548 147.241 59.3791C147.92 58.1034 148.047 56.7696 147.622 55.3777C147.201 54.0007 146.355 52.9802 145.084 52.3162C143.823 51.6329 142.487 51.4986 141.076 51.9134Z" fill="white"/>
<defs>
<linearGradient id="paint0_linear_11072_51" x1="83.4729" y1="59.0549" x2="83.4729" y2="149.656" gradientUnits="userSpaceOnUse">
<stop stop-color="#CD417A"/>
<stop offset="1" stop-color="#78318F"/>
</linearGradient>
</defs>
</svg>
